  0
SECTION
  2
HEADER
  9
$ACADVER
  1
AC1006
  9
$EXTMIN
 10
0.000000
 20
0.000000
 30
0.000000
  9
$EXTMAX
 10
1100.000000
 20
1484.000000
 30
0.000000
  0
ENDSEC
  0
SECTION
  2
ENTITIES
  0
POLYLINE
  8
0
 66
1
 70
1
  0
VERTEX
  8
0
 10
350.363721
 20
1252.564760
 42
0.032349
  0
VERTEX
  8
0
 10
327.900796
 20
1247.352579
 42
0.032695
  0
VERTEX
  8
0
 10
306.380069
 20
1239.300179
 42
0.030961
  0
VERTEX
  8
0
 10
285.074045
 20
1228.063791
 42
0.023678
  0
VERTEX
  8
0
 10
263.244100
 20
1213.302789
 42
0.024105
  0
VERTEX
  8
0
 10
250.418403
 20
1202.714951
 42
0.014149
  0
VERTEX
  8
0
 10
236.082070
 20
1188.907628
 42
0.013632
  0
VERTEX
  8
0
 10
221.708445
 20
1173.436331
 42
0.015124
  0
VERTEX
  8
0
 10
208.706506
 20
1157.718944
 42
0.035102
  0
VERTEX
  8
0
 10
176.985365
 20
1110.414832
 42
0.025390
  0
VERTEX
  8
0
 10
148.242314
 20
1053.796984
 42
0.023829
  0
VERTEX
  8
0
 10
123.543437
 20
990.370951
 42
0.021376
  0
VERTEX
  8
0
 10
103.973758
 20
922.558262
 42
0.011038
  0
VERTEX
  8
0
 10
93.948747
 20
876.898480
 42
0.012042
  0
VERTEX
  8
0
 10
86.267512
 20
832.143285
 42
0.011328
  0
VERTEX
  8
0
 10
80.395953
 20
784.738865
 42
0.007885
  0
VERTEX
  8
0
 10
75.827501
 20
731.000000
 42
0.014268
  0
VERTEX
  8
0
 10
74.739307
 20
704.148383
 42
0.003882
  0
VERTEX
  8
0
 10
74.560712
 20
661.672476
 42
0.003945
  0
VERTEX
  8
0
 10
75.049090
 20
619.020417
 42
0.013099
  0
VERTEX
  8
0
 10
76.325920
 20
591.000000
 42
0.007509
  0
VERTEX
  8
0
 10
80.629779
 20
541.513410
 42
0.011010
  0
VERTEX
  8
0
 10
86.024820
 20
498.153815
 42
0.011545
  0
VERTEX
  8
0
 10
93.096322
 20
456.684197
 42
0.009641
  0
VERTEX
  8
0
 10
102.465263
 20
413.000000
 42
0.015606
  0
VERTEX
  8
0
 10
115.899039
 20
362.856788
 42
0.016358
  0
VERTEX
  8
0
 10
132.249925
 20
314.439757
 42
0.016972
  0
VERTEX
  8
0
 10
151.031941
 20
269.049623
 42
0.020676
  0
VERTEX
  8
0
 10
171.761300
 20
228.000000
 42
0.011689
  0
VERTEX
  8
0
 10
180.104551
 20
213.836709
 42
0.007042
  0
VERTEX
  8
0
 10
190.621005
 20
197.422667
 42
0.007056
  0
VERTEX
  8
0
 10
201.487454
 20
181.471043
 42
0.012789
  0
VERTEX
  8
0
 10
210.887732
 20
168.784538
 42
0.019173
  0
VERTEX
  8
0
 10
224.865452
 20
152.243814
 42
0.015874
  0
VERTEX
  8
0
 10
240.950577
 20
135.711832
 42
0.016167
  0
VERTEX
  8
0
 10
257.609136
 20
120.652485
 42
0.023573
  0
VERTEX
  8
0
 10
273.294851
 20
108.590132
 42
0.054327
  0
VERTEX
  8
0
 10
311.110452
 20
87.937856
 42
0.061787
  0
VERTEX
  8
0
 10
350.895960
 20
77.016638
 42
0.063334
  0
VERTEX
  8
0
 10
391.289433
 20
76.290023
 42
0.061924
  0
VERTEX
  8
0
 10
430.905238
 20
85.657907
 42
0.020848
  0
VERTEX
  8
0
 10
439.066213
 20
89.085093
 42
0.008777
  0
VERTEX
  8
0
 10
449.747428
 20
94.334951
 42
0.008834
  0
VERTEX
  8
0
 10
460.519450
 20
100.109007
 42
0.015849
  0
VERTEX
  8
0
 10
469.118013
 20
105.279765
 42
0.027850
  0
VERTEX
  8
0
 10
487.347920
 20
118.537776
 42
0.020536
  0
VERTEX
  8
0
 10
506.024445
 20
135.102452
 42
0.019788
  0
VERTEX
  8
0
 10
524.083296
 20
153.928013
 42
0.020192
  0
VERTEX
  8
0
 10
540.470186
 20
174.000000
 42
-0.000284
  0
VERTEX
  8
0
 10
542.370766
 20
176.526976
 42
-0.000422
  0
VERTEX
  8
0
 10
544.038073
 20
178.737298
 42
-0.000180
  0
VERTEX
  8
0
 10
545.466929
 20
180.626776
 42
-0.008734
  0
VERTEX
  8
0
 10
545.759229
 20
180.999311
 42
-0.453373
  0
VERTEX
  8
0
 10
546.399127
 20
181.022820
 42
-0.009627
  0
VERTEX
  8
0
 10
548.783620
 20
178.395339
 42
-0.010366
  0
VERTEX
  8
0
 10
552.336421
 20
174.151267
 42
-0.002060
  0
VERTEX
  8
0
 10
558.500000
 20
166.405223
 42
0.031894
  0
VERTEX
  8
0
 10
584.988281
 20
136.911502
 42
0.036007
  0
VERTEX
  8
0
 10
614.020953
 20
112.294238
 42
0.038429
  0
VERTEX
  8
0
 10
644.297417
 20
93.544510
 42
0.050524
  0
VERTEX
  8
0
 10
674.500000
 20
81.596835
 42
0.056174
  0
VERTEX
  8
0
 10
711.433933
 20
75.503690
 42
0.058767
  0
VERTEX
  8
0
 10
748.221457
 20
77.939878
 42
0.056992
  0
VERTEX
  8
0
 10
784.392758
 20
89.025462
 42
0.047759
  0
VERTEX
  8
0
 10
819.500000
 20
108.510836
 42
0.011524
  0
VERTEX
  8
0
 10
828.775223
 20
115.205366
 42
0.015300
  0
VERTEX
  8
0
 10
836.872729
 20
121.737841
 42
0.013284
  0
VERTEX
  8
0
 10
845.376112
 20
129.439954
 42
0.006112
  0
VERTEX
  8
0
 10
856.055173
 20
139.894687
 42
0.013237
  0
VERTEX
  8
0
 10
870.960483
 20
155.661559
 42
0.016643
  0
VERTEX
  8
0
 10
883.870807
 20
171.065360
 42
0.016002
  0
VERTEX
  8
0
 10
896.119864
 20
187.785188
 42
0.010822
  0
VERTEX
  8
0
 10
909.043496
 20
207.569843
 42
0.054327
  0
VERTEX
  8
0
 10
962.795912
 20
319.290323
 42
0.037648
  0
VERTEX
  8
0
 10
999.493449
 20
454.711360
 42
0.035173
  0
VERTEX
  8
0
 10
1017.444096
 20
604.773701
 42
0.032151
  0
VERTEX
  8
0
 10
1015.023514
 20
760.500000
 42
-0.008248
  0
VERTEX
  8
0
 10
1014.677702
 20
765.953357
 42
-0.003192
  0
VERTEX
  8
0
 10
1014.371477
 20
773.519876
 42
-0.003159
  0
VERTEX
  8
0
 10
1014.143712
 20
781.726151
 42
-0.003901
  0
VERTEX
  8
0
 10
1014.039452
 20
789.376174
 42
0.004744
  0
VERTEX
  8
0
 10
1013.932645
 20
796.350361
 42
0.006870
  0
VERTEX
  8
0
 10
1013.695242
 20
802.506960
 42
0.003813
  0
VERTEX
  8
0
 10
1013.384890
 20
807.681283
 42
0.106364
  0
VERTEX
  8
0
 10
1013.013909
 20
808.974011
 42
-0.087840
  0
VERTEX
  8
0
 10
1012.118983
 20
811.709617
 42
-0.001777
  0
VERTEX
  8
0
 10
1010.122291
 20
826.151973
 42
-0.003712
  0
VERTEX
  8
0
 10
1008.382126
 20
839.845376
 42
-0.029623
  0
VERTEX
  8
0
 10
1008.001921
 20
846.201210
 42
0.030597
  0
VERTEX
  8
0
 10
1007.889435
 20
848.022193
 42
0.011917
  0
VERTEX
  8
0
 10
1007.520559
 20
850.518584
 42
0.011745
  0
VERTEX
  8
0
 10
1006.991742
 20
853.209804
 42
0.014290
  0
VERTEX
  8
0
 10
1006.365940
 20
855.701210
 42
-0.018910
  0
VERTEX
  8
0
 10
1005.685209
 20
858.521304
 42
-0.008344
  0
VERTEX
  8
0
 10
1004.989618
 20
862.293480
 42
-0.008244
  0
VERTEX
  8
0
 10
1004.384257
 20
866.321360
 42
-0.010976
  0
VERTEX
  8
0
 10
1003.975226
 20
870.000000
 42
0.006645
  0
VERTEX
  8
0
 10
1003.385123
 20
875.761089
 42
0.030043
  0
VERTEX
  8
0
 10
1002.795507
 20
879.087489
 42
0.034498
  0
VERTEX
  8
0
 10
1001.847748
 20
882.103535
 42
0.010665
  0
VERTEX
  8
0
 10
1000.016016
 20
886.500000
 42
-0.013795
  0
VERTEX
  8
0
 10
999.284701
 20
888.286697
 42
-0.009425
  0
VERTEX
  8
0
 10
998.548916
 20
890.353125
 42
-0.009506
  0
VERTEX
  8
0
 10
997.914605
 20
892.373527
 42
-0.018893
  0
VERTEX
  8
0
 10
997.503776
 20
894.000000
 42
0.016774
  0
VERTEX
  8
0
 10
997.126012
 20
895.522707
 42
0.011852
  0
VERTEX
  8
0
 10
996.604444
 20
897.206250
 42
0.011980
  0
VERTEX
  8
0
 10
996.028539
 20
898.793358
 42
0.024597
  0
VERTEX
  8
0
 10
995.487902
 20
900.000000
 42
-0.045719
  0
VERTEX
  8
0
 10
994.793113
 20
901.744383
 42
-0.002725
  0
VERTEX
  8
0
 10
993.212676
 20
907.195032
 42
-0.004079
  0
VERTEX
  8
0
 10
991.416335
 20
913.721082
 42
-0.002998
  0
VERTEX
  8
0
 10
989.527572
 20
920.983088
 42
0.019156
  0
VERTEX
  8
0
 10
967.367975
 20
996.128109
 42
0.026586
  0
VERTEX
  8
0
 10
941.447457
 20
1061.359682
 42
0.029184
  0
VERTEX
  8
0
 10
911.090843
 20
1118.308221
 42
0.033741
  0
VERTEX
  8
0
 10
875.594872
 20
1168.500000
 42
0.018783
  0
VERTEX
  8
0
 10
867.512268
 20
1177.704985
 42
0.007227
  0
VERTEX
  8
0
 10
855.636182
 20
1189.889489
 42
0.007179
  0
VERTEX
  8
0
 10
843.471457
 20
1201.671196
 42
0.020028
  0
VERTEX
  8
0
 10
834.500000
 20
1209.460699
 42
0.026475
  0
VERTEX
  8
0
 10
813.530782
 20
1224.494504
 42
0.028673
  0
VERTEX
  8
0
 10
791.626328
 20
1236.797088
 42
0.030052
  0
VERTEX
  8
0
 10
769.532742
 20
1245.990712
 42
0.037187
  0
VERTEX
  8
0
 10
748.000000
 20
1251.716636
 42
0.033985
  0
VERTEX
  8
0
 10
735.127064
 20
1253.237752
 42
0.014675
  0
VERTEX
  8
0
 10
717.853229
 20
1253.588899
 42
0.014613
  0
VERTEX
  8
0
 10
700.687238
 20
1252.932030
 42
0.036359
  0
VERTEX
  8
0
 10
688.250967
 20
1251.177501
 42
0.029938
  0
VERTEX
  8
0
 10
667.495729
 20
1245.372942
 42
0.028591
  0
VERTEX
  8
0
 10
647.251031
 20
1237.057784
 42
0.027688
  0
VERTEX
  8
0
 10
627.480562
 20
1226.199227
 42
0.024391
  0
VERTEX
  8
0
 10
608.143483
 20
1212.787906
 42
0.022901
  0
VERTEX
  8
0
 10
596.455394
 20
1202.924106
 42
0.010729
  0
VERTEX
  8
0
 10
582.218017
 20
1189.168080
 42
0.010716
  0
VERTEX
  8
0
 10
568.186601
 20
1174.396369
 42
0.017439
  0
VERTEX
  8
0
 10
557.000000
 20
1161.206331
 42
0.000000
  0
VERTEX
  8
0
 10
546.500000
 20
1147.912663
 42
0.000000
  0
VERTEX
  8
0
 10
544.500000
 20
1150.310174
 42
-0.005818
  0
VERTEX
  8
0
 10
543.282097
 20
1151.805168
 42
-0.000671
  0
VERTEX
  8
0
 10
540.590625
 20
1155.197980
 42
-0.000808
  0
VERTEX
  8
0
 10
537.401145
 20
1159.243093
 42
-0.000659
  0
VERTEX
  8
0
 10
534.000000
 20
1163.582794
 42
0.012893
  0
VERTEX
  8
0
 10
529.699041
 20
1168.802398
 42
0.005243
  0
VERTEX
  8
0
 10
523.590625
 20
1175.690525
 42
0.005184
  0
VERTEX
  8
0
 10
516.865583
 20
1182.962677
 42
0.006582
  0
VERTEX
  8
0
 10
510.500000
 20
1189.529172
 42
0.014734
  0
VERTEX
  8
0
 10
494.410213
 20
1204.769804
 42
0.023266
  0
VERTEX
  8
0
 10
479.658997
 20
1216.755042
 42
0.024766
  0
VERTEX
  8
0
 10
464.569435
 20
1226.776959
 42
0.020133
  0
VERTEX
  8
0
 10
447.500000
 20
1236.024258
 42
0.011999
  0
VERTEX
  8
0
 10
436.346609
 20
1241.169529
 42
0.016674
  0
VERTEX
  8
0
 10
426.109398
 20
1245.197811
 42
0.017444
  0
VERTEX
  8
0
 10
416.004203
 20
1248.397560
 42
0.015346
  0
VERTEX
  8
0
 10
405.261305
 20
1251.038848
 42
0.033051
  0
VERTEX
  8
0
 10
393.784214
 20
1252.706748
 42
0.012613
  0
VERTEX
  8
0
 10
377.644792
 20
1253.563140
 42
0.012530
  0
VERTEX
  8
0
 10
361.559627
 20
1253.607039
 42
0.035263
  0
SEQEND
  0
POLYLINE
  8
0
 66
1
 70
1
  0
VERTEX
  8
0
 10
397.705193
 20
1232.478365
 42
-0.045347
  0
VERTEX
  8
0
 10
420.817066
 20
1226.363993
 42
-0.035201
  0
VERTEX
  8
0
 10
444.588499
 20
1215.758719
 42
-0.033878
  0
VERTEX
  8
0
 10
467.612438
 20
1201.396268
 42
-0.033820
  0
VERTEX
  8
0
 10
488.500000
 20
1184.048446
 42
-0.023649
  0
VERTEX
  8
0
 10
512.218251
 20
1159.233703
 42
-0.023873
  0
VERTEX
  8
0
 10
533.408127
 20
1132.365148
 42
-0.022809
  0
VERTEX
  8
0
 10
552.767402
 20
1102.454683
 42
-0.018036
  0
VERTEX
  8
0
 10
570.998717
 20
1068.500000
 42
-0.013733
  0
VERTEX
  8
0
 10
586.977874
 20
1033.586501
 42
-0.015093
  0
VERTEX
  8
0
 10
600.486539
 20
998.919895
 42
-0.014105
  0
VERTEX
  8
0
 10
612.601117
 20
961.510639
 42
-0.009522
  0
VERTEX
  8
0
 10
624.390614
 20
918.227572
 42
-0.014030
  0
VERTEX
  8
0
 10
634.355909
 20
873.417542
 42
-0.011472
  0
VERTEX
  8
0
 10
642.557162
 20
825.010326
 42
-0.011053
  0
VERTEX
  8
0
 10
648.816812
 20
774.284574
 42
-0.010526
  0
VERTEX
  8
0
 10
652.948867
 20
722.500000
 42
-0.014328
  0
VERTEX
  8
0
 10
653.685107
 20
697.899485
 42
-0.002768
  0
VERTEX
  8
0
 10
653.494976
 20
653.373662
 42
-0.002720
  0
VERTEX
  8
0
 10
652.816565
 20
608.877152
 42
-0.015100
  0
VERTEX
  8
0
 10
651.600580
 20
585.000000
 42
-0.015950
  0
VERTEX
  8
0
 10
642.231370
 20
502.424070
 42
-0.019567
  0
VERTEX
  8
0
 10
628.029368
 20
426.114317
 42
-0.020842
  0
VERTEX
  8
0
 10
608.911959
 20
355.617212
 42
-0.024248
  0
VERTEX
  8
0
 10
584.776489
 20
290.505488
 42
-0.009057
  0
VERTEX
  8
0
 10
578.815955
 20
277.214465
 42
-0.005145
  0
VERTEX
  8
0
 10
571.149486
 20
261.342826
 42
-0.005058
  0
VERTEX
  8
0
 10
563.460705
 20
246.220856
 42
-0.013747
  0
VERTEX
  8
0
 10
557.615252
 20
235.721200
 42
0.002298
  0
VERTEX
  8
0
 10
555.846198
 20
232.708073
 42
0.003602
  0
VERTEX
  8
0
 10
554.355730
 20
230.099427
 42
0.001013
  0
VERTEX
  8
0
 10
553.081478
 20
227.820626
 42
0.127645
  0
VERTEX
  8
0
 10
553.000000
 20
227.506670
 42
-0.146587
  0
VERTEX
  8
0
 10
552.164790
 20
224.719031
 42
-0.001676
  0
VERTEX
  8
0
 10
541.320858
 20
208.366490
 42
-0.005201
  0
VERTEX
  8
0
 10
531.005167
 20
193.265628
 42
-0.024211
  0
VERTEX
  8
0
 10
524.554329
 20
184.921473
 42
0.003623
  0
VERTEX
  8
0
 10
522.983328
 20
183.053609
 42
0.001115
  0
VERTEX
  8
0
 10
520.640667
 20
180.214080
 42
0.001115
  0
VERTEX
  8
0
 10
518.033661
 20
177.025273
 42
0.001223
  0
VERTEX
  8
0
 10
515.520281
 20
173.921473
 42
-0.009656
  0
VERTEX
  8
0
 10
512.529956
 20
170.353437
 42
-0.003993
  0
VERTEX
  8
0
 10
508.353647
 20
165.637948
 42
-0.003949
  0
VERTEX
  8
0
 10
503.794576
 20
160.652124
 42
-0.005076
  0
VERTEX
  8
0
 10
499.520281
 20
156.143883
 42
-0.054116
  0
VERTEX
  8
0
 10
456.962099
 20
120.749858
 42
-0.077031
  0
VERTEX
  8
0
 10
412.372174
 20
100.199243
 42
-0.083760
  0
VERTEX
  8
0
 10
366.589964
 20
95.097523
 42
-0.078239
  0
VERTEX
  8
0
 10
320.500000
 20
105.032717
 42
-0.069544
  0
VERTEX
  8
0
 10
280.652421
 20
127.182614
 42
-0.046462
  0
VERTEX
  8
0
 10
242.019279
 20
162.391276
 42
-0.041237
  0
VERTEX
  8
0
 10
206.134923
 20
208.967507
 42
-0.031249
  0
VERTEX
  8
0
 10
174.543239
 20
265.240642
 42
-0.029814
  0
VERTEX
  8
0
 10
143.683443
 20
340.429489
 42
-0.025496
  0
VERTEX
  8
0
 10
120.108272
 20
422.762984
 42
-0.023982
  0
VERTEX
  8
0
 10
103.847950
 20
512.150227
 42
-0.019863
  0
VERTEX
  8
0
 10
94.932884
 20
608.500000
 42
-0.009297
  0
VERTEX
  8
0
 10
94.117169
 20
632.517744
 42
-0.003848
  0
VERTEX
  8
0
 10
93.868221
 20
665.021565
 42
-0.003837
  0
VERTEX
  8
0
 10
94.118080
 20
697.422037
 42
-0.009670
  0
VERTEX
  8
0
 10
94.937151
 20
721.000000
 42
-0.014060
  0
VERTEX
  8
0
 10
100.775916
 20
791.885441
 42
-0.016339
  0
VERTEX
  8
0
 10
110.414953
 20
858.842166
 42
-0.017132
  0
VERTEX
  8
0
 10
123.871807
 20
922.004583
 42
-0.019396
  0
VERTEX
  8
0
 10
141.170859
 20
981.500000
 42
-0.007265
  0
VERTEX
  8
0
 10
149.649322
 20
1005.755157
 42
-0.009773
  0
VERTEX
  8
0
 10
158.070799
 20
1027.444991
 42
-0.010021
  0
VERTEX
  8
0
 10
167.155762
 20
1048.351123
 42
-0.008323
  0
VERTEX
  8
0
 10
177.630906
 20
1070.224354
 42
-0.033383
  0
VERTEX
  8
0
 10
212.944942
 20
1130.493765
 42
-0.048799
  0
VERTEX
  8
0
 10
252.272000
 20
1177.730668
 42
-0.056237
  0
VERTEX
  8
0
 10
294.873604
 20
1211.249982
 42
-0.075412
  0
VERTEX
  8
0
 10
340.000000
 20
1230.528991
 42
-0.030616
  0
VERTEX
  8
0
 10
353.431744
 20
1233.140037
 42
-0.024259
  0
VERTEX
  8
0
 10
368.173837
 20
1234.355722
 42
-0.023866
  0
VERTEX
  8
0
 10
383.253839
 20
1234.145271
 42
-0.026586
  0
SEQEND
  0
POLYLINE
  8
0
 66
1
 70
1
  0
VERTEX
  8
0
 10
735.000000
 20
1233.565123
 42
-0.010737
  0
VERTEX
  8
0
 10
744.191968
 20
1232.267343
 42
-0.017374
  0
VERTEX
  8
0
 10
751.935829
 20
1230.725959
 42
-0.017647
  0
VERTEX
  8
0
 10
759.467858
 20
1228.669661
 42
-0.011545
  0
VERTEX
  8
0
 10
768.000000
 20
1225.795814
 42
-0.067406
  0
VERTEX
  8
0
 10
809.036955
 20
1204.296395
 42
-0.049830
  0
VERTEX
  8
0
 10
847.722930
 20
1170.586374
 42
-0.043349
  0
VERTEX
  8
0
 10
883.747287
 20
1124.909598
 42
-0.029476
  0
VERTEX
  8
0
 10
916.787395
 20
1067.500000
 42
-0.010639
  0
VERTEX
  8
0
 10
924.645955
 20
1050.894051
 42
-0.006038
  0
VERTEX
  8
0
 10
933.483166
 20
1030.486385
 42
-0.006037
  0
VERTEX
  8
0
 10
941.700899
 20
1010.177960
 42
-0.012296
  0
VERTEX
  8
0
 10
947.566769
 20
994.000000
 42
0.010557
  0
VERTEX
  8
0
 10
948.361418
 20
991.784360
 42
0.011624
  0
VERTEX
  8
0
 10
949.225339
 20
989.675000
 42
0.011084
  0
VERTEX
  8
0
 10
950.043210
 20
987.910984
 42
0.056320
  0
VERTEX
  8
0
 10
950.625617
 20
987.000000
 42
-0.069729
  0
VERTEX
  8
0
 10
952.555620
 20
983.795662
 42
-0.027477
  0
VERTEX
  8
0
 10
954.315542
 20
978.943362
 42
-0.027548
  0
VERTEX
  8
0
 10
955.585530
 20
973.706590
 42
-0.045741
  0
VERTEX
  8
0
 10
956.000000
 20
969.185486
 42
0.020371
  0
VERTEX
  8
0
 10
956.101727
 20
966.689697
 42
0.026619
  0
VERTEX
  8
0
 10
956.408433
 20
964.426515
 42
0.029746
  0
VERTEX
  8
0
 10
956.881123
 20
962.555022
 42
0.076181
  0
VERTEX
  8
0
 10
957.498508
 20
961.305593
 42
-0.075894
  0
VERTEX
  8
0
 10
958.142029
 20
960.005142
 42
-0.014949
  0
VERTEX
  8
0
 10
958.859112
 20
957.493658
 42
-0.015533
  0
VERTEX
  8
0
 10
959.522100
 20
954.488819
 42
-0.013869
  0
VERTEX
  8
0
 10
960.026062
 20
951.333086
 42
0.009870
  0
VERTEX
  8
0
 10
960.524868
 20
948.040796
 42
0.008680
  0
VERTEX
  8
0
 10
961.172628
 20
944.625969
 42
0.008755
  0
VERTEX
  8
0
 10
961.864563
 20
941.565259
 42
0.025831
  0
VERTEX
  8
0
 10
962.484222
 20
939.500000
 42
-0.016226
  0
VERTEX
  8
0
 10
964.255367
 20
933.984046
 42
-0.008165
  0
VERTEX
  8
0
 10
966.148774
 20
926.921094
 42
-0.008152
  0
VERTEX
  8
0
 10
967.841767
 20
919.667111
 42
-0.013643
  0
VERTEX
  8
0
 10
968.998165
 20
913.511486
 42
0.008694
  0
VERTEX
  8
0
 10
969.483379
 20
910.779957
 42
0.011459
  0
VERTEX
  8
0
 10
970.025809
 20
908.309125
 42
0.009018
  0
VERTEX
  8
0
 10
970.559772
 20
906.277860
 42
0.100860
  0
VERTEX
  8
0
 10
970.940981
 20
905.538660
 42
-0.098078
  0
VERTEX
  8
0
 10
971.306843
 20
904.838711
 42
-0.012509
  0
VERTEX
  8
0
 10
971.747503
 20
903.189481
 42
-0.014255
  0
VERTEX
  8
0
 10
972.170270
 20
901.182042
 42
-0.011425
  0
VERTEX
  8
0
 10
972.513927
 20
899.000000
 42
0.023233
  0
VERTEX
  8
0
 10
972.967659
 20
896.503990
 42
0.013188
  0
VERTEX
  8
0
 10
973.735391
 20
893.530213
 42
0.013147
  0
VERTEX
  8
0
 10
974.668790
 20
890.568656
 42
0.021092
  0
VERTEX
  8
0
 10
975.635945
 20
888.102852
 42
-0.029609
  0
VERTEX
  8
0
 10
976.717237
 20
885.201725
 42
-0.008480
  0
VERTEX
  8
0
 10
978.046666
 20
880.589029
 42
-0.008503
  0
VERTEX
  8
0
 10
979.372294
 20
875.323737
 42
-0.008937
  0
VERTEX
  8
0
 10
980.494700
 20
870.102852
 42
-0.020629
  0
VERTEX
  8
0
 10
991.992975
 20
795.356874
 42
-0.017237
  0
VERTEX
  8
0
 10
998.163082
 20
715.292044
 42
-0.016932
  0
VERTEX
  8
0
 10
998.866080
 20
633.360995
 42
-0.017845
  0
VERTEX
  8
0
 10
993.960736
 20
553.000000
 42
-0.023777
  0
VERTEX
  8
0
 10
979.674353
 20
454.612159
 42
-0.027333
  0
VERTEX
  8
0
 10
956.528858
 20
362.584595
 42
-0.029281
  0
VERTEX
  8
0
 10
925.473405
 20
279.976950
 42
-0.039624
  0
VERTEX
  8
0
 10
887.435283
 20
209.907183
 42
-0.004707
  0
VERTEX
  8
0
 10
882.250884
 20
202.096149
 42
-0.006703
  0
VERTEX
  8
0
 10
877.488293
 20
195.264234
 42
-0.005848
  0
VERTEX
  8
0
 10
872.080520
 20
187.907526
 42
-0.002589
  0
VERTEX
  8
0
 10
864.777469
 20
178.315937
 42
-0.021557
  0
VERTEX
  8
0
 10
852.275799
 20
163.444624
 42
-0.017372
  0
VERTEX
  8
0
 10
837.636292
 20
148.553976
 42
-0.017479
  0
VERTEX
  8
0
 10
822.124648
 20
134.833330
 42
-0.022955
  0
VERTEX
  8
0
 10
807.000000
 20
123.493411
 42
-0.033857
  0
VERTEX
  8
0
 10
785.992646
 20
111.191616
 42
-0.036420
  0
VERTEX
  8
0
 10
764.013159
 20
102.175726
 42
-0.037606
  0
VERTEX
  8
0
 10
741.650466
 20
96.672825
 42
-0.041809
  0
VERTEX
  8
0
 10
719.500000
 20
94.840466
 42
-0.039717
  0
VERTEX
  8
0
 10
697.433304
 20
96.619056
 42
-0.037917
  0
VERTEX
  8
0
 10
675.569655
 20
101.868010
 42
-0.036620
  0
VERTEX
  8
0
 10
654.047548
 20
110.579801
 42
-0.032044
  0
VERTEX
  8
0
 10
633.000000
 20
122.683896
 42
-0.024081
  0
VERTEX
  8
0
 10
617.053478
 20
134.411568
 42
-0.020038
  0
VERTEX
  8
0
 10
601.261258
 20
148.327906
 42
-0.019111
  0
VERTEX
  8
0
 10
585.876906
 20
164.188092
 42
-0.017132
  0
VERTEX
  8
0
 10
571.153830
 20
181.750000
 42
0.000000
  0
VERTEX
  8
0
 10
567.831941
 20
186.000000
 42
0.000000
  0
VERTEX
  8
0
 10
580.165971
 20
186.144336
 42
-0.002492
  0
VERTEX
  8
0
 10
587.085258
 20
186.190825
 42
-0.000511
  0
VERTEX
  8
0
 10
599.305004
 20
186.199545
 42
-0.000538
  0
VERTEX
  8
0
 10
613.504329
 20
186.179899
 42
-0.000505
  0
VERTEX
  8
0
 10
628.000000
 20
186.129598
 42
0.004507
  0
VERTEX
  8
0
 10
653.383001
 20
186.244659
 42
0.016731
  0
VERTEX
  8
0
 10
669.362167
 20
186.996333
 42
0.024297
  0
VERTEX
  8
0
 10
681.927933
 20
188.627008
 42
0.021033
  0
VERTEX
  8
0
 10
694.905308
 20
191.524827
 42
0.010213
  0
VERTEX
  8
0
 10
705.073205
 20
194.472635
 42
0.015580
  0
VERTEX
  8
0
 10
713.753399
 20
197.482327
 42
0.015731
  0
VERTEX
  8
0
 10
722.167761
 20
201.003983
 42
0.010698
  0
VERTEX
  8
0
 10
731.518367
 20
205.512002
 42
0.050491
  0
VERTEX
  8
0
 10
769.076500
 20
229.666474
 42
0.041239
  0
VERTEX
  8
0
 10
803.891928
 20
262.417400
 42
0.037584
  0
VERTEX
  8
0
 10
835.748096
 20
303.601259
 42
0.028503
  0
VERTEX
  8
0
 10
864.443715
 20
353.000000
 42
0.026955
  0
VERTEX
  8
0
 10
886.602027
 20
403.242478
 42
0.022471
  0
VERTEX
  8
0
 10
904.766930
 20
458.699616
 42
0.021648
  0
VERTEX
  8
0
 10
918.501376
 20
517.807717
 42
0.020464
  0
VERTEX
  8
0
 10
927.380546
 20
579.000000
 42
0.004972
  0
VERTEX
  8
0
 10
929.463803
 20
601.280573
 42
0.008904
  0
VERTEX
  8
0
 10
930.666672
 20
619.624628
 42
0.008244
  0
VERTEX
  8
0
 10
931.268646
 20
638.922229
 42
0.003616
  0
VERTEX
  8
0
 10
931.459580
 20
664.500000
 42
0.005506
  0
VERTEX
  8
0
 10
931.139462
 20
694.194519
 42
0.009218
  0
VERTEX
  8
0
 10
930.135320
 20
719.142742
 42
0.009919
  0
VERTEX
  8
0
 10
928.282967
 20
742.691278
 42
0.007912
  0
VERTEX
  8
0
 10
925.381101
 20
768.000000
 42
0.023528
  0
VERTEX
  8
0
 10
912.469801
 20
840.168825
 42
0.026986
  0
VERTEX
  8
0
 10
893.248624
 20
907.509752
 42
0.028515
  0
VERTEX
  8
0
 10
868.109548
 20
968.839789
 42
0.034431
  0
VERTEX
  8
0
 10
837.468162
 20
1023.000000
 42
0.016298
  0
VERTEX
  8
0
 10
821.348206
 20
1045.758097
 42
0.019957
  0
VERTEX
  8
0
 10
804.781956
 20
1065.879836
 42
0.021100
  0
VERTEX
  8
0
 10
787.549375
 20
1083.619808
 42
0.023337
  0
VERTEX
  8
0
 10
769.430565
 20
1099.226404
 42
-0.007436
  0
VERTEX
  8
0
 10
765.866319
 20
1102.104262
 42
-0.011147
  0
VERTEX
  8
0
 10
762.850169
 20
1104.730569
 42
-0.006265
  0
VERTEX
  8
0
 10
760.415134
 20
1107.004688
 42
-0.189709
  0
VERTEX
  8
0
 10
760.071455
 20
1107.750000
 42
0.069101
  0
VERTEX
  8
0
 10
759.977053
 20
1108.227749
 42
0.081466
  0
VERTEX
  8
0
 10
759.758054
 20
1108.632812
 42
0.093853
  0
VERTEX
  8
0
 10
759.451893
 20
1108.904290
 42
0.135386
  0
VERTEX
  8
0
 10
759.104899
 20
1109.000000
 42
-0.162376
  0
VERTEX
  8
0
 10
758.558137
 20
1109.182370
 42
-0.008124
  0
VERTEX
  8
0
 10
757.046608
 20
1110.355795
 42
-0.012365
  0
VERTEX
  8
0
 10
755.279986
 20
1111.847149
 42
-0.008571
  0
VERTEX
  8
0
 10
753.354899
 20
1113.615471
 42
0.026764
  0
VERTEX
  8
0
 10
747.382242
 20
1118.713998
 42
0.019999
  0
VERTEX
  8
0
 10
740.301147
 20
1123.695826
 42
0.020179
  0
VERTEX
  8
0
 10
732.952635
 20
1128.028642
 42
0.030086
  0
VERTEX
  8
0
 10
726.179136
 20
1131.153531
 42
-0.003860
  0
VERTEX
  8
0
 10
719.400242
 20
1133.859624
 42
-0.003117
  0
VERTEX
  8
0
 10
712.161131
 20
1136.867211
 42
-0.002437
  0
VERTEX
  8
0
 10
705.673573
 20
1139.647450
 42
-0.020628
  0
VERTEX
  8
0
 10
702.816406
 20
1141.031132
 42
0.027512
  0
VERTEX
  8
0
 10
701.815102
 20
1141.499151
 42
0.004689
  0
VERTEX
  8
0
 10
699.854628
 20
1142.265979
 42
0.005104
  0
VERTEX
  8
0
 10
697.531872
 20
1143.122447
 42
0.004530
  0
VERTEX
  8
0
 10
695.097952
 20
1143.967002
 42
0.028868
  0
VERTEX
  8
0
 10
691.262386
 20
1145.017039
 42
0.029238
  0
VERTEX
  8
0
 10
687.347678
 20
1145.612843
 42
0.019150
  0
VERTEX
  8
0
 10
682.177144
 20
1145.893785
 42
0.004879
  0
VERTEX
  8
0
 10
673.781545
 20
1145.946082
 42
0.005423
  0
VERTEX
  8
0
 10
667.344236
 20
1145.853545
 42
0.004792
  0
VERTEX
  8
0
 10
660.638954
 20
1145.620087
 42
0.004817
  0
VERTEX
  8
0
 10
654.600646
 20
1145.293585
 42
0.014565
  0
VERTEX
  8
0
 10
650.500000
 20
1144.912028
 42
-0.019481
  0
VERTEX
  8
0
 10
638.941851
 20
1143.951050
 42
-0.003999
  0
VERTEX
  8
0
 10
618.479206
 20
1143.214157
 42
-0.004429
  0
VERTEX
  8
0
 10
597.454535
 20
1142.811691
 42
-0.011324
  0
VERTEX
  8
0
 10
582.224332
 20
1143.000000
 42
0.000000
  0
VERTEX
  8
0
 10
567.948665
 20
1143.500000
 42
0.000000
  0
VERTEX
  8
0
 10
574.308193
 20
1151.500000
 42
-0.035058
  0
VERTEX
  8
0
 10
602.366270
 20
1182.121763
 42
-0.042614
  0
VERTEX
  8
0
 10
632.765307
 20
1206.393928
 42
-0.046450
  0
VERTEX
  8
0
 10
664.236583
 20
1223.415014
 42
-0.061587
  0
VERTEX
  8
0
 10
695.500000
 20
1232.402746
 42
-0.008462
  0
VERTEX
  8
0
 10
707.594190
 20
1234.106979
 42
-0.023416
  0
VERTEX
  8
0
 10
716.163058
 20
1234.761565
 42
-0.025442
  0
VERTEX
  8
0
 10
724.350225
 20
1234.585887
 42
-0.011615
  0
SEQEND
  0
POLYLINE
  8
0
 66
1
 70
1
  0
VERTEX
  8
0
 10
604.500000
 20
1114.956770
 42
-0.065367
  0
VERTEX
  8
0
 10
646.033256
 20
1087.863803
 42
-0.046076
  0
VERTEX
  8
0
 10
684.895270
 20
1047.798742
 42
-0.041628
  0
VERTEX
  8
0
 10
719.467001
 20
996.704149
 42
-0.033143
  0
VERTEX
  8
0
 10
748.156962
 20
936.606236
 42
-0.011833
  0
VERTEX
  8
0
 10
756.783638
 20
913.368637
 42
-0.008693
  0
VERTEX
  8
0
 10
765.282581
 20
887.234636
 42
-0.008736
  0
VERTEX
  8
0
 10
772.802306
 20
861.040764
 42
-0.012651
  0
VERTEX
  8
0
 10
778.449112
 20
837.640810
 42
-0.023017
  0
VERTEX
  8
0
 10
791.087121
 20
761.960268
 42
-0.023322
  0
VERTEX
  8
0
 10
796.643772
 20
685.771395
 42
-0.023388
  0
VERTEX
  8
0
 10
795.074538
 20
609.607097
 42
-0.023459
  0
VERTEX
  8
0
 10
786.396493
 20
534.000000
 42
-0.023983
  0
VERTEX
  8
0
 10
771.280014
 20
462.779615
 42
-0.028900
  0
VERTEX
  8
0
 10
750.094703
 20
397.738893
 42
-0.030838
  0
VERTEX
  8
0
 10
723.061321
 20
339.460559
 42
-0.036858
  0
VERTEX
  8
0
 10
690.421323
 20
288.500000
 42
-0.026628
  0
VERTEX
  8
0
 10
670.120825
 20
264.230922
 42
-0.029767
  0
VERTEX
  8
0
 10
648.056235
 20
243.198704
 42
-0.031172
  0
VERTEX
  8
0
 10
624.690908
 20
225.816447
 42
-0.036465
  0
VERTEX
  8
0
 10
600.500000
 20
212.462825
 42
-0.001555
  0
VERTEX
  8
0
 10
592.356021
 20
208.743797
 42
-0.620779
  0
VERTEX
  8
0
 10
591.972655
 20
209.057536
 42
-0.197514
  0
VERTEX
  8
0
 10
592.574520
 20
209.907445
 42
-0.001092
  0
VERTEX
  8
0
 10
601.156803
 20
215.317182
 42
0.031462
  0
VERTEX
  8
0
 10
624.664574
 20
232.211561
 42
0.027447
  0
VERTEX
  8
0
 10
647.022477
 20
252.664528
 42
0.025812
  0
VERTEX
  8
0
 10
668.283198
 20
276.740891
 42
0.021133
  0
VERTEX
  8
0
 10
688.501512
 20
304.500000
 42
0.029961
  0
VERTEX
  8
0
 10
716.318152
 20
352.266863
 42
0.026563
  0
VERTEX
  8
0
 10
739.484371
 20
404.944640
 42
0.025022
  0
VERTEX
  8
0
 10
758.124149
 20
462.901082
 42
0.020408
  0
VERTEX
  8
0
 10
772.367824
 20
526.500000
 42
0.013717
  0
VERTEX
  8
0
 10
777.866506
 20
562.376703
 42
0.012612
  0
VERTEX
  8
0
 10
781.571665
 20
599.518885
 42
0.012160
  0
VERTEX
  8
0
 10
783.500450
 20
638.150996
 42
0.010714
  0
VERTEX
  8
0
 10
783.667537
 20
678.500000
 42
0.008278
  0
VERTEX
  8
0
 10
782.432744
 20
714.974768
 42
0.011468
  0
VERTEX
  8
0
 10
780.035324
 20
747.609081
 42
0.012082
  0
VERTEX
  8
0
 10
776.272260
 20
778.704850
 42
0.011078
  0
VERTEX
  8
0
 10
770.920839
 20
810.500000
 42
0.021400
  0
VERTEX
  8
0
 10
755.857392
 20
874.346917
 42
0.025640
  0
VERTEX
  8
0
 10
736.095227
 20
932.851361
 42
0.027163
  0
VERTEX
  8
0
 10
711.667826
 20
985.926596
 42
0.031267
  0
VERTEX
  8
0
 10
682.620305
 20
1033.500000
 42
0.023785
  0
VERTEX
  8
0
 10
663.661599
 20
1058.016968
 42
0.023032
  0
VERTEX
  8
0
 10
642.265315
 20
1080.898938
 42
0.023937
  0
VERTEX
  8
0
 10
619.887396
 20
1100.725455
 42
0.033506
  0
VERTEX
  8
0
 10
598.000000
 20
1116.028375
 42
-0.008034
  0
VERTEX
  8
0
 10
592.056546
 20
1119.748390
 42
-0.812668
  0
VERTEX
  8
0
 10
592.259465
 20
1120.272564
 42
-0.068099
  0
VERTEX
  8
0
 10
595.115406
 20
1119.391055
 42
-0.003022
  0
SEQEND
  0
POLYLINE
  8
0
 66
1
 70
1
  0
VERTEX
  8
0
 10
680.477806
 20
1113.834897
 42
-0.064592
  0
VERTEX
  8
0
 10
721.314853
 20
1086.682670
 42
-0.045530
  0
VERTEX
  8
0
 10
759.501599
 20
1046.827298
 42
-0.040969
  0
VERTEX
  8
0
 10
793.614818
 20
996.002680
 42
-0.032028
  0
VERTEX
  8
0
 10
822.245372
 20
936.000000
 42
-0.011605
  0
VERTEX
  8
0
 10
828.205469
 20
920.067187
 42
-0.004978
  0
VERTEX
  8
0
 10
835.455133
 20
898.536990
 42
-0.004977
  0
VERTEX
  8
0
 10
842.273473
 20
876.870750
 42
-0.011630
  0
VERTEX
  8
0
 10
846.833711
 20
860.500000
 42
-0.011760
  0
VERTEX
  8
0
 10
854.408687
 20
827.387322
 42
-0.010998
  0
VERTEX
  8
0
 10
860.606150
 20
793.209097
 42
-0.010558
  0
VERTEX
  8
0
 10
865.512385
 20
757.428145
 42
-0.008989
  0
VERTEX
  8
0
 10
869.209795
 20
719.500000
 42
-0.016234
  0
VERTEX
  8
0
 10
870.278585
 20
696.647496
 42
-0.004733
  0
VERTEX
  8
0
 10
870.447767
 20
661.426849
 42
-0.004756
  0
VERTEX
  8
0
 10
869.947833
 20
626.158401
 42
-0.015792
  0
VERTEX
  8
0
 10
868.666621
 20
603.000000
 42
-0.012738
  0
VERTEX
  8
0
 10
862.572203
 20
548.970690
 42
-0.016954
  0
VERTEX
  8
0
 10
854.129760
 20
500.286140
 42
-0.017921
  0
VERTEX
  8
0
 10
842.871674
 20
454.568239
 42
-0.017607
  0
VERTEX
  8
0
 10
828.310948
 20
409.500000
 42
-0.029547
  0
VERTEX
  8
0
 10
803.276615
 20
351.390471
 42
-0.035769
  0
VERTEX
  8
0
 10
772.896946
 20
300.405792
 42
-0.039067
  0
VERTEX
  8
0
 10
738.499992
 20
258.471391
 42
-0.055089
  0
VERTEX
  8
0
 10
701.422172
 20
227.514905
 42
-0.013456
  0
VERTEX
  8
0
 10
693.469863
 20
222.543710
 42
-0.009617
  0
VERTEX
  8
0
 10
684.323838
 20
217.397181
 42
-0.009619
  0
VERTEX
  8
0
 10
675.555224
 20
212.897976
 42
-0.024624
  0
VERTEX
  8
0
 10
669.000000
 20
210.083099
 42
-0.009323
  0
VERTEX
  8
0
 10
665.405553
 20
208.820841
 42
-0.826085
  0
VERTEX
  8
0
 10
665.252607
 20
209.094930
 42
-0.035048
  0
VERTEX
  8
0
 10
666.896678
 20
210.290665
 42
-0.000647
  0
VERTEX
  8
0
 10
676.000000
 20
215.965747
 42
0.037380
  0
VERTEX
  8
0
 10
700.542929
 20
233.893614
 42
0.027513
  0
VERTEX
  8
0
 10
724.945740
 20
257.116174
 42
0.025816
  0
VERTEX
  8
0
 10
748.281731
 20
284.623303
 42
0.023016
  0
VERTEX
  8
0
 10
769.628334
 20
315.434105
 42
0.016306
  0
VERTEX
  8
0
 10
778.958550
 20
331.458578
 42
0.007040
  0
VERTEX
  8
0
 10
790.379982
 20
353.366310
 42
0.007054
  0
VERTEX
  8
0
 10
801.216449
 20
375.663493
 42
0.015687
  0
VERTEX
  8
0
 10
808.687745
 20
393.000000
 42
0.023256
  0
VERTEX
  8
0
 10
829.306574
 20
453.387677
 42
0.023289
  0
VERTEX
  8
0
 10
844.216684
 20
515.400967
 42
0.022677
  0
VERTEX
  8
0
 10
853.599499
 20
580.090781
 42
0.019686
  0
VERTEX
  8
0
 10
857.662638
 20
648.500000
 42
0.032972
  0
VERTEX
  8
0
 10
852.579730
 20
759.011730
 42
0.037292
  0
VERTEX
  8
0
 10
832.902714
 20
863.331598
 42
0.039675
  0
VERTEX
  8
0
 10
799.604199
 20
957.378403
 42
0.050462
  0
VERTEX
  8
0
 10
753.848236
 20
1037.212010
 42
0.023754
  0
VERTEX
  8
0
 10
735.017209
 20
1061.040941
 42
0.022487
  0
VERTEX
  8
0
 10
713.679449
 20
1083.435493
 42
0.023559
  0
VERTEX
  8
0
 10
691.884108
 20
1102.454624
 42
0.039734
  0
VERTEX
  8
0
 10
671.750000
 20
1115.963129
 42
-0.005838
  0
VERTEX
  8
0
 10
669.545933
 20
1117.234461
 42
-0.009218
  0
VERTEX
  8
0
 10
667.689062
 20
1118.381383
 42
-0.003822
  0
VERTEX
  8
0
 10
666.145477
 20
1119.391338
 42
-0.251023
  0
VERTEX
  8
0
 10
666.000000
 20
1119.662846
 42
-0.513179
  0
VERTEX
  8
0
 10
666.512377
 20
1120.030594
 42
-0.014239
  0
VERTEX
  8
0
 10
669.510256
 20
1118.921922
 42
-0.014458
  0
VERTEX
  8
0
 10
673.896434
 20
1117.007141
 42
-0.004310
  0
SEQEND
  0
POLYLINE
  8
0
 66
1
 70
1
  0
VERTEX
  8
0
 10
717.264762
 20
1113.940391
 42
-0.023178
  0
VERTEX
  8
0
 10
731.968417
 20
1105.829856
 42
-0.021863
  0
VERTEX
  8
0
 10
746.157001
 20
1096.244560
 42
-0.020615
  0
VERTEX
  8
0
 10
760.211503
 20
1084.900583
 42
-0.016149
  0
VERTEX
  8
0
 10
774.516513
 20
1071.504437
 42
-0.048233
  0
VERTEX
  8
0
 10
811.802831
 20
1026.282077
 42
-0.035655
  0
VERTEX
  8
0
 10
844.145274
 20
970.034788
 42
-0.032816
  0
VERTEX
  8
0
 10
870.637802
 20
904.647447
 42
-0.027033
  0
VERTEX
  8
0
 10
890.375377
 20
832.000000
 42
-0.003755
  0
VERTEX
  8
0
 10
893.076115
 20
818.926905
 42
-0.004829
  0
VERTEX
  8
0
 10
895.352535
 20
806.866259
 42
-0.004400
  0
VERTEX
  8
0
 10
897.550760
 20
793.912420
 42
-0.002409
  0
VERTEX
  8
0
 10
900.028628
 20
778.000000
 42
-0.019621
  0
VERTEX
  8
0
 10
905.013505
 20
733.041103
 42
-0.013498
  0
VERTEX
  8
0
 10
907.279082
 20
681.811519
 42
-0.013291
  0
VERTEX
  8
0
 10
906.786865
 20
629.328666
 42
-0.016381
  0
VERTEX
  8
0
 10
903.426218
 20
580.500000
 42
-0.029322
  0
VERTEX
  8
0
 10
888.853235
 20
490.256848
 42
-0.034004
  0
VERTEX
  8
0
 10
864.252260
 20
406.817458
 42
-0.036721
  0
VERTEX
  8
0
 10
830.931405
 20
333.797988
 42
-0.051421
  0
VERTEX
  8
0
 10
790.218986
 20
274.829995
 42
-0.015094
  0
VERTEX
  8
0
 10
777.399780
 20
260.711428
 42
-0.016723
  0
VERTEX
  8
0
 10
764.169399
 20
247.883167
 42
-0.017415
  0
VERTEX
  8
0
 10
750.659059
 20
236.464281
 42
-0.020096
  0
VERTEX
  8
0
 10
737.000000
 20
226.574403
 42
-0.019334
  0
VERTEX
  8
0
 10
728.750091
 20
221.540853
 42
-0.007868
  0
VERTEX
  8
0
 10
717.165486
 20
215.310498
 42
-0.001877
  0
VERTEX
  8
0
 10
704.842221
 20
208.989355
 42
-0.324631
  0
VERTEX
  8
0
 10
703.457206
 20
209.209461
 42
-0.449377
  0
VERTEX
  8
0
 10
703.477775
 20
209.556079
 42
-0.008222
  0
VERTEX
  8
0
 10
705.119573
 20
210.805238
 42
-0.014286
  0
VERTEX
  8
0
 10
707.235148
 20
212.269397
 42
-0.008329
  0
VERTEX
  8
0
 10
709.849285
 20
213.908937
 42
0.026845
  0
VERTEX
  8
0
 10
726.138763
 20
224.985988
 42
0.018365
  0
VERTEX
  8
0
 10
743.430559
 20
239.187527
 42
0.017802
  0
VERTEX
  8
0
 10
760.341248
 20
255.257468
 42
0.019598
  0
VERTEX
  8
0
 10
775.509209
 20
272.000000
 42
0.030987
  0
VERTEX
  8
0
 10
800.142865
 20
305.436779
 42
0.022676
  0
VERTEX
  8
0
 10
823.362489
 20
345.280503
 42
0.021824
  0
VERTEX
  8
0
 10
843.858998
 20
388.968669
 42
0.022249
  0
VERTEX
  8
0
 10
860.324114
 20
434.000000
 42
0.003387
  0
VERTEX
  8
0
 10
866.730388
 20
454.763349
 42
0.008667
  0
VERTEX
  8
0
 10
871.005849
 20
469.907131
 42
0.009409
  0
VERTEX
  8
0
 10
874.550894
 20
484.455666
 42
0.004689
  0
VERTEX
  8
0
 10
878.519343
 20
503.000000
 42
0.006406
  0
VERTEX
  8
0
 10
883.304642
 20
528.067173
 42
0.007932
  0
VERTEX
  8
0
 10
887.089323
 20
551.526024
 42
0.007930
  0
VERTEX
  8
0
 10
890.128697
 20
575.098223
 42
0.006397
  0
VERTEX
  8
0
 10
892.667297
 20
600.507233
 42
0.016110
  0
VERTEX
  8
0
 10
894.097855
 20
626.697038
 42
0.005567
  0
VERTEX
  8
0
 10
894.522916
 20
664.586558
 42
0.005559
  0
VERTEX
  8
0
 10
894.105214
 20
702.447540
 42
0.016295
  0
VERTEX
  8
0
 10
892.678153
 20
728.492767
 42
0.015280
  0
VERTEX
  8
0
 10
886.105917
 20
783.986527
 42
0.017754
  0
VERTEX
  8
0
 10
876.384118
 20
836.240929
 42
0.018558
  0
VERTEX
  8
0
 10
863.461916
 20
885.498389
 42
0.020532
  0
VERTEX
  8
0
 10
847.287958
 20
932.000000
 42
0.029086
  0
VERTEX
  8
0
 10
820.668104
 20
989.444884
 42
0.035701
  0
VERTEX
  8
0
 10
789.095106
 20
1039.418787
 42
0.038733
  0
VERTEX
  8
0
 10
753.415788
 20
1080.739368
 42
0.050018
  0
VERTEX
  8
0
 10
714.500000
 20
1112.283205
 42
-0.001827
  0
VERTEX
  8
0
 10
705.298375
 20
1118.375836
 42
-0.550566
  0
VERTEX
  8
0
 10
705.316529
 20
1119.123809
 42
-0.253165
  0
VERTEX
  8
0
 10
706.552619
 20
1119.178311
 42
-0.001469
  0
SEQEND
  0
POLYLINE
  8
0
 66
1
 70
1
  0
VERTEX
  8
0
 10
644.917235
 20
1113.138248
 42
-0.022767
  0
VERTEX
  8
0
 10
659.177236
 20
1105.167998
 42
-0.021725
  0
VERTEX
  8
0
 10
672.885577
 20
1095.817002
 42
-0.020382
  0
VERTEX
  8
0
 10
686.513840
 20
1084.732197
 42
-0.015503
  0
VERTEX
  8
0
 10
700.539496
 20
1071.544875
 42
-0.033466
  0
VERTEX
  8
0
 10
727.339832
 20
1040.882162
 42
-0.028491
  0
VERTEX
  8
0
 10
751.408705
 20
1005.275340
 42
-0.026403
  0
VERTEX
  8
0
 10
772.913575
 20
964.433245
 42
-0.020590
  0
VERTEX
  8
0
 10
792.017109
 20
918.049051
 42
-0.021486
  0
VERTEX
  8
0
 10
807.697215
 20
868.510388
 42
-0.018660
  0
VERTEX
  8
0
 10
819.916396
 20
815.431492
 42
-0.018279
  0
VERTEX
  8
0
 10
828.368739
 20
760.398943
 42
-0.018383
  0
VERTEX
  8
0
 10
832.758950
 20
705.000000
 42
-0.011531
  0
VERTEX
  8
0
 10
833.623319
 20
660.127195
 42
-0.012688
  0
VERTEX
  8
0
 10
832.355227
 20
616.674394
 42
-0.013046
  0
VERTEX
  8
0
 10
828.947636
 20
574.509483
 42
-0.013933
  0
VERTEX
  8
0
 10
823.394336
 20
533.500000
 42
-0.019796
  0
VERTEX
  8
0
 10
811.810417
 20
476.950099
 42
-0.021351
  0
VERTEX
  8
0
 10
796.021481
 20
422.924897
 42
-0.022253
  0
VERTEX
  8
0
 10
776.447929
 20
372.687635
 42
-0.026789
  0
VERTEX
  8
0
 10
753.517354
 20
327.500000
 42
-0.026341
  0
VERTEX
  8
0
 10
733.314710
 20
296.381605
 42
-0.027297
  0
VERTEX
  8
0
 10
710.174417
 20
267.945367
 42
-0.028598
  0
VERTEX
  8
0
 10
685.322714
 20
243.558349
 42
-0.038059
  0
VERTEX
  8
0
 10
660.000000
 20
224.597956
 42
-0.018757
  0
VERTEX
  8
0
 10
652.505607
 20
220.215803
 42
-0.006008
  0
VERTEX
  8
0
 10
641.060199
 20
214.263205
 42
-0.001159
  0
VERTEX
  8
0
 10
628.587516
 20
208.001794
 42
-0.322627
  0
VERTEX
  8
0
 10
627.485665
 20
208.181002
 42
-0.465595
  0
VERTEX
  8
0
 10
627.508835
 20
208.449453
 42
-0.003555
  0
VERTEX
  8
0
 10
629.547063
 20
209.862202
 42
-0.009306
  0
VERTEX
  8
0
 10
632.030689
 20
211.490730
 42
-0.005469
  0
VERTEX
  8
0
 10
635.057501
 20
213.349927
 42
0.049546
  0
VERTEX
  8
0
 10
670.003153
 20
239.308777
 42
0.036526
  0
VERTEX
  8
0
 10
703.229295
 20
274.276392
 42
0.033871
  0
VERTEX
  8
0
 10
733.476124
 20
316.722239
 42
0.028952
  0
VERTEX
  8
0
 10
759.498938
 20
365.098415
 42
0.024448
  0
VERTEX
  8
0
 10
781.175535
 20
418.323312
 42
0.022540
  0
VERTEX
  8
0
 10
798.219273
 20
474.860717
 42
0.021632
  0
VERTEX
  8
0
 10
810.688837
 20
534.994798
 42
0.018679
  0
VERTEX
  8
0
 10
818.656810
 20
599.000000
 42
0.016076
  0
VERTEX
  8
0
 10
820.002656
 20
623.739028
 42
0.004464
  0
VERTEX
  8
0
 10
820.518312
 20
662.593380
 42
0.004303
  0
VERTEX
  8
0
 10
820.353653
 20
701.219032
 42
0.018874
  0
VERTEX
  8
0
 10
819.199665
 20
724.000000
 42
0.011649
  0
VERTEX
  8
0
 10
813.363329
 20
776.054487
 42
0.016264
  0
VERTEX
  8
0
 10
805.555191
 20
822.240101
 42
0.017180
  0
VERTEX
  8
0
 10
795.164559
 20
865.761615
 42
0.015790
  0
VERTEX
  8
0
 10
781.550887
 20
909.725028
 42
0.022787
  0
VERTEX
  8
0
 10
762.767713
 20
957.104162
 42
0.025315
  0
VERTEX
  8
0
 10
740.324345
 20
1000.893467
 42
0.026639
  0
VERTEX
  8
0
 10
714.833686
 20
1040.012876
 42
0.032883
  0
VERTEX
  8
0
 10
686.918168
 20
1073.390721
 42
0.015182
  0
VERTEX
  8
0
 10
674.975564
 20
1085.162066
 42
0.013557
  0
VERTEX
  8
0
 10
661.891390
 20
1096.654003
 42
0.014053
  0
VERTEX
  8
0
 10
648.964499
 20
1106.800667
 42
0.023998
  0
VERTEX
  8
0
 10
637.558828
 20
1114.427336
 42
-0.025825
  0
VERTEX
  8
0
 10
633.465696
 20
1117.185989
 42
-0.788330
  0
VERTEX
  8
0
 10
633.755678
 20
1117.854910
 42
-0.064054
  0
VERTEX
  8
0
 10
637.500715
 20
1116.690854
 42
-0.008712
  0
SEQEND
  0
POLYLINE
  8
0
 66
1
 70
1
  0
VERTEX
  8
0
 10
579.325527
 20
1108.849020
 42
-0.083326
  0
VERTEX
  8
0
 10
636.629623
 20
1061.478052
 42
-0.053827
  0
VERTEX
  8
0
 10
685.792416
 20
990.562932
 42
-0.047364
  0
VERTEX
  8
0
 10
724.225037
 20
900.660897
 42
-0.036056
  0
VERTEX
  8
0
 10
749.410879
 20
796.500000
 42
-0.020746
  0
VERTEX
  8
0
 10
756.845701
 20
736.692489
 42
-0.017986
  0
VERTEX
  8
0
 10
759.766563
 20
673.549208
 42
-0.017934
  0
VERTEX
  8
0
 10
758.142693
 20
610.150586
 42
-0.020257
  0
VERTEX
  8
0
 10
751.943608
 20
549.574483
 42
-0.036210
  0
VERTEX
  8
0
 10
728.416229
 20
441.772727
 42
-0.047323
  0
VERTEX
  8
0
 10
690.838130
 20
348.190399
 42
-0.053645
  0
VERTEX
  8
0
 10
641.664302
 20
273.722379
 42
-0.082171
  0
VERTEX
  8
0
 10
583.442897
 20
223.065824
 42
-0.009952
  0
VERTEX
  8
0
 10
577.345436
 20
219.475570
 42
-0.036114
  0
VERTEX
  8
0
 10
573.277605
 20
217.560256
 42
-0.080495
  0
VERTEX
  8
0
 10
570.870385
 20
217.054189
 42
-0.427920
  0
VERTEX
  8
0
 10
570.000000
 20
217.884957
 42
-0.216107
  0
VERTEX
  8
0
 10
570.243133
 20
218.421214
 42
-0.004292
  0
VERTEX
  8
0
 10
572.570312
 20
220.425036
 42
-0.009410
  0
VERTEX
  8
0
 10
575.396361
 20
222.726633
 42
-0.006078
  0
VERTEX
  8
0
 10
578.750000
 20
225.289329
 42
0.041261
  0
VERTEX
  8
0
 10
611.002702
 20
253.738352
 42
0.032396
  0
VERTEX
  8
0
 10
641.077165
 20
289.390953
 42
0.030364
  0
VERTEX
  8
0
 10
668.170902
 20
331.176009
 42
0.026211
  0
VERTEX
  8
0
 10
691.494513
 20
378.000000
 42
0.017335
  0
VERTEX
  8
0
 10
707.251366
 20
418.022834
 42
0.017429
  0
VERTEX
  8
0
 10
720.166767
 20
458.969765
 42
0.016772
  0
VERTEX
  8
0
 10
730.609981
 20
502.177919
 42
0.013702
  0
VERTEX
  8
0
 10
738.946760
 20
549.000000
 42
0.017884
  0
VERTEX
  8
0
 10
744.548269
 20
598.342330
 42
0.015088
  0
VERTEX
  8
0
 10
747.022968
 20
650.844403
 42
0.015053
  0
VERTEX
  8
0
 10
746.328420
 20
703.548371
 42
0.017519
  0
VERTEX
  8
0
 10
742.408456
 20
753.500000
 42
0.029080
  0
VERTEX
  8
0
 10
726.577158
 20
844.908599
 42
0.034636
  0
VERTEX
  8
0
 10
700.814626
 20
928.523913
 42
0.037384
  0
VERTEX
  8
0
 10
666.080491
 20
1001.760209
 42
0.049192
  0
VERTEX
  8
0
 10
623.384662
 20
1062.087955
 42
0.013098
  0
VERTEX
  8
0
 10
614.584904
 20
1071.717648
 42
0.010055
  0
VERTEX
  8
0
 10
604.495128
 20
1081.781222
 42
0.010050
  0
VERTEX
  8
0
 10
594.002491
 20
1091.437047
 42
0.013036
  0
VERTEX
  8
0
 10
583.985440
 20
1099.835320
 42
-0.000074
  0
VERTEX
  8
0
 10
579.841800
 20
1103.130277
 42
-0.000098
  0
VERTEX
  8
0
 10
576.066035
 20
1106.134827
 42
-0.000070
  0
VERTEX
  8
0
 10
572.901136
 20
1108.655020
 42
-0.000956
  0
VERTEX
  8
0
 10
571.750000
 20
1109.575532
 42
-0.055253
  0
VERTEX
  8
0
 10
570.589389
 20
1110.739488
 42
-0.120350
  0
VERTEX
  8
0
 10
570.062490
 20
1111.876291
 42
-0.240945
  0
VERTEX
  8
0
 10
570.285616
 20
1112.656909
 42
-0.207793
  0
VERTEX
  8
0
 10
571.075527
 20
1113.000000
 42
-0.111629
  0
VERTEX
  8
0
 10
571.776474
 20
1112.841533
 42
-0.005372
  0
VERTEX
  8
0
 10
573.942619
 20
1111.780650
 42
-0.008551
  0
VERTEX
  8
0
 10
576.498751
 20
1110.439276
 42
-0.006038
  0
SEQEND
  0
POLYLINE
  8
0
 66
1
 70
1
  0
VERTEX
  8
0
 10
603.882165
 20
1056.572133
 42
-0.051830
  0
VERTEX
  8
0
 10
647.464074
 20
993.318827
 42
-0.039353
  0
VERTEX
  8
0
 10
681.910635
 20
916.406219
 42
-0.035914
  0
VERTEX
  8
0
 10
706.527442
 20
827.672120
 42
-0.028354
  0
VERTEX
  8
0
 10
720.646707
 20
729.000000
 42
-0.015614
  0
VERTEX
  8
0
 10
722.081957
 20
702.550314
 42
-0.005666
  0
VERTEX
  8
0
 10
722.519939
 20
664.968459
 42
-0.005663
  0
VERTEX
  8
0
 10
722.106511
 20
627.397487
 42
-0.015680
  0
VERTEX
  8
0
 10
720.687975
 20
601.000000
 42
-0.018257
  0
VERTEX
  8
0
 10
712.444598
 20
533.517252
 42
-0.022474
  0
VERTEX
  8
0
 10
699.657909
 20
471.397327
 42
-0.023712
  0
VERTEX
  8
0
 10
682.092185
 20
413.664324
 42
-0.025601
  0
VERTEX
  8
0
 10
659.513730
 20
359.349685
 42
-0.016068
  0
VERTEX
  8
0
 10
647.670334
 20
336.449311
 42
-0.014771
  0
VERTEX
  8
0
 10
634.061070
 20
313.692138
 42
-0.015155
  0
VERTEX
  8
0
 10
619.586635
 20
292.480822
 42
-0.020388
  0
VERTEX
  8
0
 10
605.149449
 20
274.253711
 42
-0.002095
  0
VERTEX
  8
0
 10
596.691211
 20
264.509137
 42
-0.063156
  0
VERTEX
  8
0
 10
594.268362
 20
262.359950
 42
-0.728666
  0
VERTEX
  8
0
 10
593.635096
 20
262.851373
 42
-0.019279
  0
VERTEX
  8
0
 10
595.632189
 20
267.750000
 42
0.001213
  0
VERTEX
  8
0
 10
596.906836
 20
270.579629
 42
0.000487
  0
VERTEX
  8
0
 10
598.636587
 20
274.454688
 42
0.000482
  0
VERTEX
  8
0
 10
600.492061
 20
278.633133
 42
0.000610
  0
VERTEX
  8
0
 10
602.199079
 20
282.500000
 42
-0.016578
  0
VERTEX
  8
0
 10
604.229013
 20
286.727602
 42
-0.007677
  0
VERTEX
  8
0
 10
607.130461
 20
292.087500
 42
-0.007595
  0
VERTEX
  8
0
 10
610.353929
 20
297.630889
 42
-0.010481
  0
VERTEX
  8
0
 10
613.426023
 20
302.500000
 42
0.023286
  0
VERTEX
  8
0
 10
637.526689
 20
342.957487
 42
0.022711
  0
VERTEX
  8
0
 10
657.979720
 20
385.814037
 42
0.022002
  0
VERTEX
  8
0
 10
675.020243
 20
431.659956
 42
0.019044
  0
VERTEX
  8
0
 10
688.898164
 20
481.075980
 42
0.015414
  0
VERTEX
  8
0
 10
699.044698
 20
529.905772
 42
0.017412
  0
VERTEX
  8
0
 10
705.690309
 20
577.326777
 42
0.016940
  0
VERTEX
  8
0
 10
709.144792
 20
626.219161
 42
0.013196
  0
VERTEX
  8
0
 10
709.692077
 20
679.500000
 42
0.006103
  0
VERTEX
  8
0
 10
708.849609
 20
709.235196
 42
0.009404
  0
VERTEX
  8
0
 10
707.323774
 20
734.919233
 42
0.010008
  0
VERTEX
  8
0
 10
704.923062
 20
759.297536
 42
0.008432
  0
VERTEX
  8
0
 10
701.430951
 20
785.000000
 42
0.009278
  0
VERTEX
  8
0
 10
697.313601
 20
808.920104
 42
0.007401
  0
VERTEX
  8
0
 10
692.015493
 20
834.553573
 42
0.007497
  0
VERTEX
  8
0
 10
686.075471
 20
859.515963
 42
0.010841
  0
VERTEX
  8
0
 10
680.020567
 20
881.369234
 42
0.015276
  0
VERTEX
  8
0
 10
666.587812
 20
921.564221
 42
0.019094
  0
VERTEX
  8
0
 10
651.587724
 20
957.926175
 42
0.019558
  0
VERTEX
  8
0
 10
634.187942
 20
992.303411
 42
0.017535
  0
VERTEX
  8
0
 10
613.549349
 20
1026.521764
 42
-0.020438
  0
VERTEX
  8
0
 10
608.847384
 20
1034.420837
 42
-0.008113
  0
VERTEX
  8
0
 10
603.019349
 20
1045.620158
 42
-0.008192
  0
VERTEX
  8
0
 10
597.360278
 20
1057.419003
 42
-0.014078
  0
VERTEX
  8
0
 10
593.087379
 20
1067.450290
 42
-0.752974
  0
VERTEX
  8
0
 10
593.463175
 20
1067.738662
 42
-0.038259
  0
VERTEX
  8
0
 10
595.319757
 20
1066.133933
 42
-0.014354
  0
VERTEX
  8
0
 10
598.800375
 20
1062.418990
 42
-0.004315
  0
SEQEND
  0
POLYLINE
  8
0
 66
1
 70
1
  0
VERTEX
  8
0
 10
653.151199
 20
892.000000
 42
-0.016741
  0
VERTEX
  8
0
 10
663.912712
 20
853.263201
 42
-0.013930
  0
VERTEX
  8
0
 10
672.809315
 20
811.449482
 42
-0.013470
  0
VERTEX
  8
0
 10
679.644043
 20
767.663643
 42
-0.012954
  0
VERTEX
  8
0
 10
684.215558
 20
723.000000
 42
-0.015712
  0
VERTEX
  8
0
 10
685.291599
 20
698.927642
 42
-0.004392
  0
VERTEX
  8
0
 10
685.459945
 20
661.230920
 42
-0.004390
  0
VERTEX
  8
0
 10
684.966242
 20
623.540240
 42
-0.015740
  0
VERTEX
  8
0
 10
683.682320
 20
599.500000
 42
-0.012567
  0
VERTEX
  8
0
 10
678.645281
 20
553.880267
 42
-0.014118
  0
VERTEX
  8
0
 10
671.466155
 20
510.318743
 42
-0.014723
  0
VERTEX
  8
0
 10
662.186599
 20
469.018537
 42
-0.016864
  0
VERTEX
  8
0
 10
650.844277
 20
430.187113
 42
-0.003463
  0
VERTEX
  8
0
 10
649.263145
 20
425.492080
 42
-0.005939
  0
VERTEX
  8
0
 10
647.871301
 20
421.602503
 42
-0.001586
  0
VERTEX
  8
0
 10
646.633413
 20
418.300663
 42
-0.544464
  0
VERTEX
  8
0
 10
646.413322
 20
418.253345
 42
-0.226907
  0
VERTEX
  8
0
 10
646.307460
 20
418.553432
 42
-0.013587
  0
VERTEX
  8
0
 10
646.439364
 20
419.529767
 42
-0.018221
  0
VERTEX
  8
0
 10
646.678637
 20
420.723014
 42
-0.012273
  0
VERTEX
  8
0
 10
647.034354
 20
422.066232
 42
0.019957
  0
VERTEX
  8
0
 10
648.513628
 20
428.020220
 42
0.001572
  0
VERTEX
  8
0
 10
651.762318
 20
444.008063
 42
0.002376
  0
VERTEX
  8
0
 10
655.031493
 20
460.774044
 42
0.004344
  0
VERTEX
  8
0
 10
657.513871
 20
474.483307
 42
0.017174
  0
VERTEX
  8
0
 10
666.951260
 20
543.396398
 42
0.014997
  0
VERTEX
  8
0
 10
672.169542
 20
615.985345
 42
0.014939
  0
VERTEX
  8
0
 10
673.039238
 20
689.076495
 42
0.016637
  0
VERTEX
  8
0
 10
669.426984
 20
759.500000
 42
0.006969
  0
VERTEX
  8
0
 10
665.958604
 20
794.613200
 42
0.007548
  0
VERTEX
  8
0
 10
661.590172
 20
828.691764
 42
0.007860
  0
VERTEX
  8
0
 10
656.399974
 20
861.202935
 42
0.009436
  0
VERTEX
  8
0
 10
650.462022
 20
891.602852
 42
-0.000476
  0
VERTEX
  8
0
 10
646.915179
 20
908.177053
 42
-0.432860
  0
VERTEX
  8
0
 10
647.323759
 20
908.765200
 42
-0.368182
  0
VERTEX
  8
0
 10
647.999338
 20
908.342648
 42
-0.000461
  0
SEQEND
  0
POLYLINE
  8
0
 66
1
 70
1
  0
VERTEX
  8
0
 10
361.324049
 20
855.008911
 42
0.031333
  0
VERTEX
  8
0
 10
353.297547
 20
852.357934
 42
0.040592
  0
VERTEX
  8
0
 10
346.363192
 20
848.898255
 42
0.036222
  0
VERTEX
  8
0
 10
339.505596
 20
844.040402
 42
0.018740
  0
VERTEX
  8
0
 10
331.647521
 20
837.061348
 42
0.068834
  0
VERTEX
  8
0
 10
312.745720
 20
813.185817
 42
0.042348
  0
VERTEX
  8
0
 10
297.203973
 20
780.809788
 42
0.037771
  0
VERTEX
  8
0
 10
285.717592
 20
741.949807
 42
0.029625
  0
VERTEX
  8
0
 10
279.032412
 20
698.500000
 42
0.018378
  0
VERTEX
  8
0
 10
278.190967
 20
683.669923
 42
0.006629
  0
VERTEX
  8
0
 10
278.050129
 20
662.547386
 42
0.006638
  0
VERTEX
  8
0
 10
278.470143
 20
641.409231
 42
0.018144
  0
VERTEX
  8
0
 10
279.506940
 20
626.500000
 42
0.038320
  0
VERTEX
  8
0
 10
289.652618
 20
571.469348
 42
0.055940
  0
VERTEX
  8
0
 10
307.493710
 20
525.564105
 42
0.068121
  0
VERTEX
  8
0
 10
331.181664
 20
492.276644
 42
0.129516
  0
VERTEX
  8
0
 10
358.867304
 20
474.969828
 42
0.042003
  0
VERTEX
  8
0
 10
365.092923
 20
473.596409
 42
0.024467
  0
VERTEX
  8
0
 10
372.718908
 20
472.952410
 42
0.024524
  0
VERTEX
  8
0
 10
380.230435
 20
473.055440
 42
0.049877
  0
VERTEX
  8
0
 10
386.050831
 20
474.009223
 42
0.041114
  0
VERTEX
  8
0
 10
393.993763
 20
476.857228
 42
0.033554
  0
VERTEX
  8
0
 10
401.948947
 20
481.136697
 42
0.031397
  0
VERTEX
  8
0
 10
409.774937
 20
486.763988
 42
0.026352
  0
VERTEX
  8
0
 10
417.330657
 20
493.647317
 42
0.039626
  0
VERTEX
  8
0
 10
428.289105
 20
506.656857
 42
0.029679
  0
VERTEX
  8
0
 10
438.268538
 20
522.522125
 42
0.027062
  0
VERTEX
  8
0
 10
447.164598
 20
541.031553
 42
0.021054
  0
VERTEX
  8
0
 10
454.861800
 20
562.000000
 42
0.043504
  0
VERTEX
  8
0
 10
466.124767
 20
611.722325
 42
0.035135
  0
VERTEX
  8
0
 10
469.713306
 20
666.376748
 42
0.035187
  0
VERTEX
  8
0
 10
465.615520
 20
720.896887
 42
0.044075
  0
VERTEX
  8
0
 10
453.888221
 20
770.214291
 42
0.029623
  0
VERTEX
  8
0
 10
442.949695
 20
797.539044
 42
0.040940
  0
VERTEX
  8
0
 10
429.789336
 20
820.426209
 42
0.046840
  0
VERTEX
  8
0
 10
414.932872
 20
838.161791
 42
0.072678
  0
VERTEX
  8
0
 10
398.885858
 20
849.980153
 42
0.035433
  0
VERTEX
  8
0
 10
393.060248
 20
852.573729
 42
0.021081
  0
VERTEX
  8
0
 10
385.814764
 20
854.861665
 42
0.021075
  0
VERTEX
  8
0
 10
378.630364
 20
856.480051
 42
0.047891
  0
VERTEX
  8
0
 10
373.090037
 20
856.944938
 42
0.027154
  0
VERTEX
  8
0
 10
370.832699
 20
856.795079
 42
0.010625
  0
VERTEX
  8
0
 10
367.740388
 20
856.353517
 42
0.010480
  0
VERTEX
  8
0
 10
364.407816
 20
855.733161
 42
0.012838
  0
SEQEND
  0
POLYLINE
  8
0
 66
1
 70
1
  0
VERTEX
  8
0
 10
384.500000
 20
757.546718
 42
-0.033316
  0
VERTEX
  8
0
 10
389.097230
 20
755.120319
 42
-0.041870
  0
VERTEX
  8
0
 10
392.970600
 20
752.260826
 42
-0.037582
  0
VERTEX
  8
0
 10
396.617636
 20
748.544895
 42
-0.020285
  0
VERTEX
  8
0
 10
400.553347
 20
743.477445
 42
-0.041865
  0
VERTEX
  8
0
 10
407.140998
 20
732.389851
 42
-0.028197
  0
VERTEX
  8
0
 10
412.824196
 20
718.798156
 42
-0.026804
  0
VERTEX
  8
0
 10
417.244944
 20
703.768629
 42
-0.026685
  0
VERTEX
  8
0
 10
420.040211
 20
688.330104
 42
-0.023069
  0
VERTEX
  8
0
 10
420.938138
 20
677.077904
 42
-0.010830
  0
VERTEX
  8
0
 10
421.111077
 20
662.477411
 42
-0.010756
  0
VERTEX
  8
0
 10
420.659119
 20
648.053806
 42
-0.026348
  0
VERTEX
  8
0
 10
419.541347
 20
637.500000
 42
-0.024609
  0
VERTEX
  8
0
 10
415.629618
 20
618.911281
 42
-0.036220
  0
VERTEX
  8
0
 10
410.239558
 20
603.124787
 42
-0.041142
  0
VERTEX
  8
0
 10
403.323063
 20
589.957627
 42
-0.052876
  0
VERTEX
  8
0
 10
394.818249
 20
579.257005
 42
-0.033990
  0
VERTEX
  8
0
 10
390.047162
 20
575.024680
 42
-0.048140
  0
VERTEX
  8
0
 10
385.245509
 20
572.004447
 42
-0.051319
  0
VERTEX
  8
0
 10
380.207272
 20
570.092411
 42
-0.047024
  0
VERTEX
  8
0
 10
374.734203
 20
569.174393
 42
-0.138739
  0
VERTEX
  8
0
 10
363.071243
 20
571.581256
 42
-0.082754
  0
VERTEX
  8
0
 10
351.661424
 20
580.153969
 42
-0.066317
  0
VERTEX
  8
0
 10
341.514274
 20
594.104355
 42
-0.043923
  0
VERTEX
  8
0
 10
333.633118
 20
612.305420
 42
-0.020230
  0
VERTEX
  8
0
 10
330.192313
 20
624.253749
 42
-0.025846
  0
VERTEX
  8
0
 10
328.048583
 20
635.506433
 42
-0.022693
  0
VERTEX
  8
0
 10
326.904536
 20
648.016937
 42
-0.011158
  0
VERTEX
  8
0
 10
326.528880
 20
664.000000
 42
-0.006991
  0
VERTEX
  8
0
 10
326.720806
 20
678.994725
 42
-0.020946
  0
VERTEX
  8
0
 10
327.423875
 20
689.217599
 42
-0.024499
  0
VERTEX
  8
0
 10
328.908370
 20
698.443352
 42
-0.012805
  0
VERTEX
  8
0
 10
331.609184
 20
709.766945
 42
-0.040102
  0
VERTEX
  8
0
 10
338.270726
 20
728.604412
 42
-0.055752
  0
VERTEX
  8
0
 10
347.331955
 20
744.017914
 42
-0.066412
  0
VERTEX
  8
0
 10
357.918517
 20
754.816706
 42
-0.119895
  0
VERTEX
  8
0
 10
369.146765
 20
759.885474
 42
-0.034631
  0
VERTEX
  8
0
 10
373.033280
 20
760.338966
 42
-0.049564
  0
VERTEX
  8
0
 10
376.496316
 20
760.158304
 42
-0.044712
  0
VERTEX
  8
0
 10
380.110564
 20
759.271797
 42
-0.022287
  0
SEQEND
  0
ENDSEC
  0
EOF
